<?xml version="1.0" encoding="UTF-8"?>
<svg id="Layer_2" data-name="Layer 2" xmlns="http://www.w3.org/2000/svg" viewBox="0 0 542.61 51.15">
  <defs>
    <style>
      .cls-1 {
        fill: #31525b;
        stroke-width: 0px;
      }
    </style>
  </defs>
  <g id="Layer_15" data-name="Layer 15">
    <g>
      <path class="cls-1" d="M18.4,27h-10.15l-3.7,10.2h3.75v1.45H0v-1.45h2.6L15.15,3.65h3.7l12.35,33.55h2.7v1.45h-15.65v-1.45h3.65l-3.5-10.2ZM8.75,25.55h9.2l-4.4-13-4.8,13Z"/>
      <path class="cls-1" d="M46,7.2v7.65h6.5v1.3h-6.5v21.2h6.1v1.3h-17.25v-1.3h3v-21.2h-3.15v-1.3h3.15v-.9c0-8.65,2.9-13.95,11.3-13.95,5.55,0,7.6,2.9,7.6,5.6s-1.65,4.1-3.85,4.1c-2.45,0-3.7-1.35-3.7-3.35,0-.7.15-1.45.3-2.05h1.75c.2-.55.25-1,.25-1.4,0-1.15-.9-1.7-2.1-1.7-2.95,0-3.4,2.25-3.4,6Z"/>
      <path class="cls-1" d="M90,3.65l.5,9.75h-1.15c-2.1-6.5-4.9-8.3-10.95-8.3h-2.7v14.95h1.95c3.35,0,5.1-2.35,5.9-6.4h1.15v14.8h-1.25c-1.05-5.05-2.65-6.8-6.3-6.8h-1.45v15.55h2.75c6.6,0,10.45-3.55,11.8-9.3h1.1l-.4,10.75h-27.05v-1.45h3.2V5.1h-3.2v-1.45h26.1Z"/>
      <path class="cls-1" d="M95.4,30.35h1.1c1.5,5.5,4.4,7.25,8.45,7.25,3.7,0,5.15-1.45,5.15-3.25,0-2.5-2.45-3-6.15-3.95-4-1-8.45-2.35-8.45-7.85,0-4.85,3.45-8.2,8.7-8.2,2.15,0,3.6.5,5,1.15.5.2.85.4,1.4.4.65,0,.95-.45,1.15-1.65h1v7.6h-1.05c-1.55-4.2-3.9-6.1-7.35-6.1-3.1,0-4.7,1.1-4.7,2.9,0,2.45,2.85,3,6.2,3.85,3.95,1,8.35,2.4,8.35,8.3,0,5.4-3.55,8.35-9.2,8.35-2.5,0-4.3-.55-6.15-1.5-.3-.2-.7-.4-.9-.4-.6,0-1,.4-1.5,1.9h-1.05v-8.8Z"/>
      <path class="cls-1" d="M118.15,16.15h-3v-1.3h3v-6.45l8.2-2.05v8.5h6.6v1.3h-6.6v16.35c0,2.85.5,4.35,2.45,4.35,2.25,0,3.65-1.95,4.1-5.35l1.2.15c-.45,3.9-2.05,7.5-7.95,7.5-4.65,0-8-1.45-8-7.2v-15.8Z"/>
      <path class="cls-1" d="M147.9,14.35c7.25,0,10.6,3.95,10.3,11.4h-14.45v1.65c0,6.2,1.2,9.9,6.15,9.9,3.65,0,5.9-2.1,7-5.95l1.3.2c-1.05,4.25-3.65,7.6-10.6,7.6-8.5,0-12.4-5.05-12.4-12.3,0-8.65,5.6-12.5,12.7-12.5ZM150.35,24.4c0-6.8-.45-8.85-3-8.85-2.4,0-3.6,1.85-3.6,8.85h6.6Z"/>
      <path class="cls-1" d="M171.5,24.9v12.45h4v1.3h-15.15v-1.3h3v-21.2h-3v-1.3h11.15v4.55c1.05-3.55,3.6-5.05,6.55-5.05s5.2,2,5.2,5.5c0,2.85-1.45,4.45-3.85,4.45-2.15,0-3.8-1.05-3.8-3.95,0-.5.05-1,.15-1.5h1.55c.25-.55.3-.9.3-1.25,0-.9-.65-1.15-1.25-1.15-2.55,0-4.85,4-4.85,8.45Z"/>
      <path class="cls-1" d="M208.75,3.65c9.1,0,14.85,2.1,14.85,9.9,0,8.55-6.7,10.9-16.15,10.9h-.8v12.75h6.25v1.45h-18.35v-1.45h3.5V5.1h-3.5v-1.45h14.2ZM206.65,23h1.45c4.8,0,6.35-2.65,6.35-9.45s-1.6-8.45-6.05-8.45h-1.75v17.9Z"/>
      <path class="cls-1" d="M237.05,14.85v22.5h3.05v1.3h-14.2v-1.3h3v-21.2h-3.15v-1.3h11.3ZM232.65,2.5c2.75,0,4.45,1.4,4.45,4.2,0,2.4-1.35,4.25-4.55,4.25-3.6,0-4.5-2.3-4.5-4.25,0-2.2,1.3-4.2,4.6-4.2Z"/>
      <path class="cls-1" d="M255.05,26.7v-3.65c0-5.9-.7-7.5-3.25-7.5-1.65,0-2.7.65-2.7,1.8,0,.35.05.75.2,1.15h1.3c.25.65.4,1.3.4,2.15,0,2.25-1.75,3.65-4,3.65-2.75,0-3.9-1.6-3.9-3.9,0-4.05,3.75-6.05,10-6.05,7.4,0,10.1,2.2,10.1,9.45v9.7c0,2.15.6,2.8,1.45,2.8.9,0,1.5-.8,1.85-4.8l1.15.1c-.25,5.75-2,7.55-6.1,7.55-3.7,0-5.7-1.15-6.25-3.5-1.05,2.35-2.85,3.5-6.1,3.5-3.6,0-7.3-1.15-7.3-6,0-5.2,4.35-6.45,11.3-6.45h1.85ZM255.05,31.95v-4h-.75c-2.85,0-4,1.4-4,4.95,0,3.2.6,4,1.85,4,1.4,0,2.9-1.8,2.9-4.95Z"/>
      <path class="cls-1" d="M290.2,16.05l-12.4,21.3h2.25c5.35,0,7.5-2.45,9.15-8.45h1.05l-.75,9.75h-20.8v-1.05l12.7-21.45h-2c-6.05,0-7.5,1.1-9.35,7.75h-1l.6-9.05h20.55v1.2Z"/>
      <path class="cls-1" d="M314.95,16.05l-12.4,21.3h2.25c5.35,0,7.5-2.45,9.15-8.45h1.05l-.75,9.75h-20.8v-1.05l12.7-21.45h-2c-6.05,0-7.5,1.1-9.35,7.75h-1l.6-9.05h20.55v1.2Z"/>
      <path class="cls-1" d="M330.75,26.7v-3.65c0-5.9-.7-7.5-3.25-7.5-1.65,0-2.7.65-2.7,1.8,0,.35.05.75.2,1.15h1.3c.25.65.4,1.3.4,2.15,0,2.25-1.75,3.65-4,3.65-2.75,0-3.9-1.6-3.9-3.9,0-4.05,3.75-6.05,10-6.05,7.4,0,10.1,2.2,10.1,9.45v9.7c0,2.15.6,2.8,1.45,2.8.9,0,1.5-.8,1.85-4.8l1.15.1c-.25,5.75-2,7.55-6.1,7.55-3.7,0-5.7-1.15-6.25-3.5-1.05,2.35-2.85,3.5-6.1,3.5-3.6,0-7.3-1.15-7.3-6,0-5.2,4.35-6.45,11.3-6.45h1.85ZM330.75,31.95v-4h-.75c-2.85,0-4,1.4-4,4.95,0,3.2.6,4,1.85,4,1.4,0,2.9-1.8,2.9-4.95Z"/>
      <path class="cls-1" d="M345.74,23.25h12.3v2.9h-12.3v-2.9Z"/>
      <path class="cls-1" d="M376.45,3.65v1.45h-3v15.2l.8-.2,13.05-15h-3.5v-1.45h9.1v1.45h-3.2l-8.9,10.35,11.95,21.75h2.95v1.45h-15.3v-1.45h2.5l-8.45-15.2-1,.2v15h3v1.45h-14.6v-1.45h3V5.1h-3v-1.45h14.6Z"/>
      <path class="cls-1" d="M408.5,14.35c8.05,0,12.25,3.9,12.25,12.1s-4.05,12.7-12.5,12.7-12.5-4.5-12.5-12.3,4.65-12.5,12.75-12.5ZM408.35,15.55c-3.55,0-4.05,3.8-4.05,11.2s.5,11.2,4.05,11.2c3.35,0,3.9-3.05,3.9-11.4,0-7.15-.55-11-3.9-11Z"/>
      <path class="cls-1" d="M433.59,1.15v36.2h3.05v1.3h-14.2v-1.3h3V2.45h-3.15v-1.3h11.3Z"/>
      <path class="cls-1" d="M454.65,35.2c-1.25,2.5-3.35,3.95-7.2,3.95-5.65,0-9.2-4-9.2-12.3s3.65-12.5,10.05-12.5c3.2,0,5.1,1.05,6.1,2.7V2.45h-3.45v-1.3h11.75v36.2h2.85v1.3h-10.45l-.45-3.45ZM454.55,31.2v-9.7c0-2.65-1.5-5.35-4-5.35-2.95,0-3.75,3-3.75,10.7s.7,9.95,3.45,9.95c1.95,0,4.3-1.8,4.3-5.6Z"/>
      <path class="cls-1" d="M477.24,18.65c1.3-2.5,3.35-4.3,7.2-4.3,5.7,0,9.15,3.95,9.15,12.45s-3.45,12.35-10.65,12.35c-3.35,0-5.3-.9-6.65-3.45l-3.35,3.2h-3.75V2.45h-3v-1.3h11.05v17.5ZM477.29,23.65v8.2c0,2.8,1.35,5.6,4.2,5.6s3.6-2.85,3.6-10.8-.75-10-3.05-10c-2.55,0-4.75,2.7-4.75,7Z"/>
      <path class="cls-1" d="M493.84,14.85h13.75v1.3h-2.95l5.55,16.15,5.7-16.15h-3.2v-1.3h7.4v1.3h-2.45l-9.55,26.55c-2.3,6.45-3.95,8.45-8.05,8.45-3.75,0-5.8-1.95-5.8-4.8,0-2.5,1.55-4.05,3.75-4.05s3.75,1,3.75,3.2c0,.5-.1,1.1-.3,1.8h-1.75c-.25.45-.35.85-.35,1.2,0,.75.65,1.15,1.7,1.15,2.55,0,3.8-2.65,5.6-7.9l1.05-3.1h-3l-8.65-22.5h-2.2v-1.3Z"/>
      <path class="cls-1" d="M532.29,14.35c7.25,0,10.6,3.95,10.3,11.4h-14.45v1.65c0,6.2,1.2,9.9,6.15,9.9,3.65,0,5.9-2.1,7-5.95l1.3.2c-1.05,4.25-3.65,7.6-10.6,7.6-8.5,0-12.4-5.05-12.4-12.3,0-8.65,5.6-12.5,12.7-12.5ZM534.74,24.4c0-6.8-.45-8.85-3-8.85-2.4,0-3.6,1.85-3.6,8.85h6.6Z"/>
    </g>
  </g>
</svg>