<svg width="70" height="69" viewBox="0 0 70 69" fill="none" xmlns="http://www.w3.org/2000/svg">
<g clip-path="url(#clip0_23_1175)">
<path d="M12.3958 5.50105e-06H57.6042C59.2324 -0.00152916 60.845 0.318051 62.3497 0.940456C63.8543 1.56286 65.2214 2.47587 66.3728 3.62724C67.5241 4.7786 68.4371 6.14572 69.0596 7.65034C69.682 9.15497 70.0015 10.7676 70 12.3958V55.8542C70.0015 57.4824 69.682 59.095 69.0596 60.5997C68.4371 62.1043 67.5241 63.4714 66.3728 64.6228C65.2214 65.7741 63.8543 66.6871 62.3497 67.3096C60.845 67.932 59.2324 68.2515 57.6042 68.25H12.3958C10.7678 68.2515 9.15545 67.9321 7.65102 67.3098C6.14658 66.6876 4.7796 65.7749 3.62827 64.6238C2.47694 63.4727 1.56387 62.106 0.941295 60.6017C0.318718 59.0974 -0.0011455 57.4851 5.50105e-06 55.8571V12.3958C-0.00152916 10.7676 0.318051 9.15497 0.940456 7.65034C1.56286 6.14572 2.47587 4.7786 3.62724 3.62724C4.7786 2.47587 6.14572 1.56286 7.65034 0.940456C9.15497 0.318051 10.7676 -0.00152916 12.3958 5.50105e-06V5.50105e-06Z" fill="#31525B"/>
<path d="M27.4925 40.8333H16.6542L14.4433 47.7138C14.4199 47.8377 14.3509 47.9483 14.2499 48.0239C14.149 48.0995 14.0234 48.1345 13.8979 48.1221H8.40873C8.08207 48.1221 8.0004 47.9588 8.08207 47.6029L17.4737 20.6296C17.5538 20.3057 17.6512 19.9864 17.7654 19.6729C17.9158 19.0646 17.9979 18.4415 18.0104 17.815C18.0038 17.7399 18.0265 17.6651 18.0738 17.6064C18.1211 17.5476 18.1893 17.5095 18.2642 17.5H25.8271C26.0196 17.5 26.1829 17.5817 26.2092 17.745L36.8025 47.6671C36.8842 47.9937 36.8025 48.1308 36.5108 48.1308H30.4121C30.3086 48.1404 30.2051 48.1127 30.1201 48.0528C30.0351 47.993 29.9742 47.9048 29.9483 47.8042L27.4925 40.8333ZM18.3458 35.0263H25.7454C25.5821 34.4254 25.3371 33.6875 25.0629 32.9233C24.7887 32.1592 24.5437 31.2842 24.2725 30.4121C24.0012 29.54 23.7271 28.6388 23.4267 27.7375C23.1262 26.8363 22.8812 25.9875 22.6362 25.1446C22.3912 24.3017 22.1987 23.5608 21.98 22.8783H21.9246C21.6611 24.1503 21.333 25.408 20.9417 26.6467C20.5042 28.0379 20.0667 29.5138 19.6029 30.9604C19.2563 32.338 18.8367 33.6962 18.3458 35.0292V35.0263Z" fill="#FAE6B1"/>
<path d="M59.1617 25.1446V43.0267C59.1617 43.8171 59.1617 44.4996 59.1879 45.1296C59.2142 45.7596 59.2433 46.2758 59.2696 46.7396C59.2958 47.2033 59.3512 47.4775 59.3775 47.7779C59.4037 48.0783 59.2958 48.16 59.0508 48.16H54.0575C53.9431 48.1747 53.8271 48.1505 53.7281 48.0912C53.6292 48.032 53.5531 47.9411 53.5121 47.8333L53.3487 47.0954C53.3033 46.8985 53.2846 46.6964 53.2933 46.4946C52.3441 47.3402 51.2136 47.9568 49.9887 48.2971C48.9313 48.5933 47.8377 48.7406 46.7396 48.7346C45.6636 48.752 44.5925 48.5863 43.5721 48.2446C42.6261 47.916 41.7735 47.3637 41.0871 46.6346C40.331 45.8263 39.7703 44.8555 39.4479 43.7967C39.0347 42.4528 38.8378 41.0519 38.8646 39.6462V25.1708C38.858 25.1265 38.8604 25.0813 38.8716 25.0379C38.8828 24.9945 38.9026 24.9538 38.9298 24.9182C38.9569 24.8826 38.991 24.8528 39.0299 24.8306C39.0688 24.8083 39.1118 24.7941 39.1562 24.7887H44.8292C44.8735 24.7826 44.9186 24.7854 44.9618 24.797C45.005 24.8086 45.0455 24.8287 45.0808 24.8561C45.1161 24.8836 45.1456 24.9178 45.1675 24.9568C45.1894 24.9959 45.2033 25.0389 45.2083 25.0833V38.8704C45.2083 40.1537 45.5 41.1629 46.0542 41.9008C46.6083 42.6387 47.7458 43.0208 49.0583 43.0208C49.7352 43.0254 50.4072 42.9068 51.0417 42.6708C51.6961 42.4461 52.3127 42.1236 52.8704 41.7142V25.1446C52.8704 24.9521 53.0075 24.8179 53.2787 24.8179H58.8496C58.9253 24.8079 59.0019 24.8279 59.0629 24.8737C59.124 24.9195 59.1647 24.9874 59.1762 25.0629C59.1681 25.0747 59.1625 25.088 59.16 25.1021C59.1575 25.1162 59.158 25.1307 59.1617 25.1446V25.1446Z" fill="#FAE6B1"/>
</g>
<defs>
<clipPath id="clip0_23_1175">
<rect width="70" height="68.2529" fill="white"/>
</clipPath>
</defs>
</svg>
