<svg width="48" height="48" viewBox="0 0 48 48" fill="none" xmlns="http://www.w3.org/2000/svg">
<path d="M47.5 24.1456C47.5 35.7491 39.1996 45.3956 28.2504 47.4074V31.6248H33.3424H33.772L33.8367 31.2002L34.9007 24.221L34.9884 23.6456H34.4064H28.2504V19.6176C28.2504 18.7342 28.4659 17.9236 28.9664 17.3405C29.4548 16.7715 30.2785 16.3448 31.6592 16.3448H34.688H35.188V15.8448V9.9024V9.48094L34.7726 9.40961L34.688 9.9024C34.7726 9.40961 34.7726 9.4096 34.7725 9.40959L34.7723 9.40956L34.7718 9.40947L34.77 9.40916L34.7634 9.40805L34.7386 9.40388C34.7289 9.40227 34.7172 9.40033 34.7035 9.39809C34.6866 9.39533 34.6668 9.3921 34.6441 9.38846C34.562 9.37525 34.4423 9.3565 34.2908 9.33405C33.9878 9.28917 33.5569 9.22944 33.0433 9.16974C32.0183 9.0506 30.654 8.9304 29.3152 8.9304C26.4717 8.9304 24.0662 9.79946 22.3714 11.5065C20.6764 13.2137 19.7496 15.7011 19.7496 18.8256V23.644H14.1568H13.6568V24.144V31.1264V31.6264H14.1568H19.7496V47.4074C8.80044 45.3956 0.5 35.7491 0.5 24.1456C0.5 11.0829 11.023 0.5 24 0.5C36.977 0.5 47.5 11.0829 47.5 24.1456Z" fill="#31525B" stroke="#F2EAD6"/>
</svg>
