<svg width="70" height="69" viewBox="0 0 70 69" fill="none" xmlns="http://www.w3.org/2000/svg">
<g clip-path="url(#clip0_23_1111)">
<path d="M12.3958 5.50106e-06H57.6042C59.2325 -0.00152916 60.8451 0.318051 62.3497 0.940457C63.8543 1.56286 65.2214 2.47587 66.3728 3.62724C67.5242 4.7786 68.4372 6.14572 69.0596 7.65035C69.682 9.15497 70.0016 10.7676 70 12.3958V55.8542C70.0016 57.4825 69.682 59.0951 69.0596 60.5997C68.4372 62.1043 67.5242 63.4714 66.3728 64.6228C65.2214 65.7742 63.8543 66.6872 62.3497 67.3096C60.8451 67.932 59.2325 68.2516 57.6042 68.25H12.3958C10.7676 68.2516 9.15497 67.932 7.65035 67.3096C6.14572 66.6872 4.7786 65.7742 3.62724 64.6228C2.47587 63.4714 1.56286 62.1043 0.940457 60.5997C0.318051 59.0951 -0.00152916 57.4825 5.50106e-06 55.8542V12.3958C-0.00152916 10.7676 0.318051 9.15497 0.940457 7.65035C1.56286 6.14572 2.47587 4.7786 3.62724 3.62724C4.7786 2.47587 6.14572 1.56286 7.65035 0.940457C9.15497 0.318051 10.7676 -0.00152916 12.3958 5.50106e-06V5.50106e-06Z" fill="#31525B"/>
<path d="M27.7083 56C31.7354 56 35 52.7354 35 48.7084V41.4167H27.7083C23.6812 41.4167 20.4166 44.6813 20.4166 48.7084C20.4166 52.7354 23.6812 56 27.7083 56Z" fill="#FAE6B1"/>
<path d="M20.4166 34.125C20.4166 30.0979 23.6812 26.8333 27.7083 26.8333H35V41.4167H27.7083C23.6812 41.4167 20.4166 38.1521 20.4166 34.125Z" fill="#FAE6B1"/>
<path d="M20.4166 19.5417C20.4166 15.5146 23.6812 12.25 27.7083 12.25H35V26.8333H27.7083C23.6812 26.8333 20.4166 23.5687 20.4166 19.5417Z" fill="#FAE6B1"/>
<path d="M35 12.25H42.2917C46.3187 12.25 49.5833 15.5146 49.5833 19.5417C49.5833 23.5687 46.3187 26.8333 42.2917 26.8333H35V12.25Z" fill="#FAE6B1"/>
<path d="M49.5833 34.125C49.5833 38.1521 46.3187 41.4167 42.2917 41.4167C38.2646 41.4167 35 38.1521 35 34.125C35 30.0979 38.2646 26.8333 42.2917 26.8333C46.3187 26.8333 49.5833 30.0979 49.5833 34.125Z" fill="#FAE6B1"/>
</g>
<defs>
<clipPath id="clip0_23_1111">
<rect width="70" height="68.25" fill="white"/>
</clipPath>
</defs>
</svg>
