<svg width="70" height="69" viewBox="0 0 70 69" fill="none" xmlns="http://www.w3.org/2000/svg">
<g clip-path="url(#clip0_23_1163)">
<path d="M12.3958 5.50105e-06H57.6042C59.2324 -0.00152916 60.845 0.318051 62.3497 0.940456C63.8543 1.56286 65.2214 2.47587 66.3728 3.62724C67.5241 4.7786 68.4371 6.14572 69.0596 7.65034C69.682 9.15497 70.0015 10.7676 70 12.3958V55.8542C70.0015 57.4824 69.682 59.095 69.0596 60.5997C68.4371 62.1043 67.5241 63.4714 66.3728 64.6228C65.2214 65.7741 63.8543 66.6871 62.3497 67.3096C60.845 67.932 59.2324 68.2515 57.6042 68.25H12.3958C10.7676 68.2515 9.15497 67.932 7.65034 67.3096C6.14572 66.6871 4.7786 65.7741 3.62724 64.6228C2.47587 63.4714 1.56286 62.1043 0.940456 60.5997C0.318051 59.095 -0.00152916 57.4824 5.50105e-06 55.8542V12.3958C-0.00152916 10.7676 0.318051 9.15497 0.940456 7.65034C1.56286 6.14572 2.47587 4.7786 3.62724 3.62724C4.7786 2.47587 6.14572 1.56286 7.65034 0.940456C9.15497 0.318051 10.7676 -0.00152916 12.3958 5.50105e-06V5.50105e-06Z" fill="#31525B"/>
<path d="M33.9208 40.95H23.0708L20.8542 47.8042C20.8294 47.9291 20.7588 48.0402 20.6563 48.1158C20.5537 48.1914 20.4266 48.2258 20.3 48.2125H14.8167C14.4958 48.2125 14.4083 48.0375 14.4958 47.6875L23.8875 20.65C23.975 20.3583 24.0625 20.0375 24.1792 19.6875C24.2965 19.0624 24.3551 18.4277 24.3542 17.7917C24.3454 17.7186 24.3646 17.645 24.4079 17.5855C24.4511 17.526 24.5153 17.485 24.5875 17.4708H32.1417C32.375 17.4708 32.4917 17.5583 32.5208 17.7042L43.1667 47.7458C43.2542 48.0667 43.1667 48.2125 42.875 48.2125H36.7792C36.6761 48.2224 36.5728 48.1957 36.4874 48.137C36.4021 48.0783 36.3401 47.9915 36.3125 47.8917L33.9208 40.95ZM24.7625 35.0292H32.1708C31.9958 34.4167 31.7625 33.6875 31.5 32.9292C31.2375 32.1708 30.975 31.2958 30.7125 30.4208C30.45 29.5458 30.1583 28.6417 29.8667 27.7375C29.575 26.8333 29.3125 25.9875 29.0792 25.1417C28.8458 24.2958 28.6417 23.5667 28.4375 22.8667H28.3792C28.117 24.1379 27.786 25.3939 27.3875 26.6292C26.95 28.0292 26.5125 29.4875 26.0458 30.9458C25.6375 32.4333 25.2 33.8042 24.7625 35.0292V35.0292Z" fill="#FAE6B1"/>
<path d="M49.525 22.4583C49.0462 22.4688 48.5702 22.384 48.1245 22.2087C47.6789 22.0334 47.2725 21.7713 46.9292 21.4375C46.2609 20.7069 45.905 19.7438 45.9375 18.7542C45.9203 18.272 46.0049 17.7916 46.1858 17.3443C46.3667 16.8971 46.6399 16.4929 46.9875 16.1583C47.6885 15.4957 48.6187 15.1299 49.5833 15.1375C50.7208 15.1375 51.5958 15.4875 52.2375 16.1583C52.8836 16.8656 53.2289 17.7967 53.2 18.7542C53.2178 19.247 53.1366 19.7383 52.9613 20.1992C52.7859 20.6601 52.52 21.0812 52.1792 21.4375C51.8355 21.7876 51.4207 22.0598 50.9628 22.2359C50.505 22.412 50.0147 22.4879 49.525 22.4583V22.4583ZM46.2583 47.775V25.3167C46.2583 25.025 46.375 24.9083 46.6375 24.9083H52.4125C52.675 24.9083 52.7917 25.0542 52.7917 25.3167V47.775C52.7917 48.0958 52.675 48.2417 52.4125 48.2417H46.6958C46.6345 48.2467 46.5729 48.2379 46.5155 48.2158C46.4581 48.1937 46.4064 48.1589 46.3644 48.114C46.3223 48.0691 46.2909 48.0153 46.2726 47.9566C46.2542 47.8979 46.2493 47.8359 46.2583 47.775V47.775Z" fill="#FAE6B1"/>
</g>
<defs>
<clipPath id="clip0_23_1163">
<rect width="70" height="68.25" fill="white"/>
</clipPath>
</defs>
</svg>
