<svg width="48" height="48" viewBox="0 0 48 48" fill="none" xmlns="http://www.w3.org/2000/svg">
<path d="M14.6176 18.3529V17.8529H14.1176H7.05882H6.55882V18.3529V40.9412V41.4412H7.05882H14.1176H14.6176V40.9412V18.3529ZM7.3397 13.8368C8.19982 14.6969 9.36588 15.1807 10.5821 15.1823C11.1797 15.1962 11.7742 15.0927 12.3319 14.8775C12.8915 14.6616 13.4031 14.3375 13.8374 13.9238C14.2717 13.5101 14.6203 13.0148 14.8631 12.4664C15.106 11.9179 15.2384 11.327 15.2528 10.7273L15.2529 10.7273V10.7153V10.5899C15.2569 9.9909 15.1429 9.39699 14.9175 8.842C14.6919 8.28644 14.3591 7.78076 13.9381 7.35383C13.517 6.92691 13.016 6.58709 12.4636 6.35379C11.9113 6.12049 11.3184 5.99828 10.7188 5.99413V5.99412H10.7153H10.5882C9.3698 5.99412 8.20127 6.47814 7.3397 7.3397C6.47814 8.20127 5.99412 9.3698 5.99412 10.5882C5.99412 11.8067 6.47814 12.9752 7.3397 13.8368ZM41.4412 27.2209V27.2188C41.4412 23.712 40.3219 21.212 38.5859 19.5915C36.861 17.9815 34.5817 17.2908 32.3419 17.2882C30.8536 17.2159 29.3721 17.5339 28.0445 18.2108C27.0698 18.7078 26.203 19.3856 25.4882 20.2043V18.3529V17.8529H24.9882H18.3529H17.8529V18.3529V40.9412V41.4412H18.3529H25.4118H25.9118V40.9412V28.9271V28.9064L25.9101 28.8857C25.8189 27.7865 26.1651 26.6958 26.8736 25.8504C27.5771 25.0108 28.5815 24.4806 29.671 24.3729H29.9153C30.9297 24.3729 31.7553 24.6882 32.3359 25.3525C32.9253 26.027 33.3259 27.1338 33.3259 28.8424V40.9412V41.4412H33.8259H40.8847H41.3827L41.3847 40.9432L41.4412 27.2209ZM47.5 3.52941V44.4706C47.5 45.274 47.1808 46.0446 46.6127 46.6127C46.0446 47.1808 45.274 47.5 44.4706 47.5H3.52941C2.72596 47.5 1.95542 47.1808 1.38729 46.6127C0.81917 46.0446 0.5 45.274 0.5 44.4706V3.52941C0.5 2.72596 0.819169 1.95542 1.38729 1.38729C1.95542 0.819169 2.72596 0.5 3.52941 0.5H44.4706C45.274 0.5 46.0446 0.81917 46.6127 1.38729C47.1808 1.95542 47.5 2.72596 47.5 3.52941Z" fill="#31525B" stroke="#F2EAD6"/>
</svg>
