<svg width="48" height="48" viewBox="0 0 48 48" fill="none" xmlns="http://www.w3.org/2000/svg">
<path d="M3.72837 3.37364C3.34995 2.97137 2.71708 2.95204 2.31482 3.33045C2.31438 3.33087 2.31394 3.33128 2.31351 3.33169C2.39334 3.20757 2.47609 3.0876 2.56154 2.972C3.50789 1.69164 4.73481 1 6 1H42C43.2652 1 44.4921 1.69163 45.4385 2.97199C45.5415 3.11137 45.6406 3.25709 45.7354 3.40877L24.0247 24.9492L3.72837 3.37364ZM1 8.11765C1 6.48194 1.39195 4.99499 2.0312 3.81048C1.94936 4.131 2.02819 4.48522 2.27163 4.74401L23.2716 27.0675C23.4565 27.2641 23.713 27.3776 23.9828 27.3822C24.2526 27.3869 24.5128 27.2823 24.7043 27.0922L46.6064 5.36197C46.8583 6.20448 47 7.13417 47 8.11765V39.8824C47 41.9319 46.3846 43.7479 45.4385 45.028C44.4921 46.3084 43.2652 47 42 47H6C4.95552 47 3.93712 46.5286 3.08114 45.6438C3.36425 45.6206 3.63566 45.4776 3.81371 45.2283L18.5627 24.5814C18.8838 24.132 18.7797 23.5075 18.3303 23.1865C17.8809 22.8654 17.2563 22.9695 16.9353 23.4189L2.18629 44.0658C2.14032 44.1301 2.10306 44.1981 2.07429 44.2682C1.40961 43.0712 1 41.5545 1 39.8824V8.11765ZM44.2108 43.57C44.55 44.0059 45.1783 44.0843 45.6141 43.7451C46.05 43.4059 46.1284 42.7776 45.7892 42.3417L31.0382 23.386C30.699 22.9502 30.0708 22.8718 29.6349 23.211C29.199 23.5502 29.1207 24.1784 29.4598 24.6143L44.2108 43.57Z" fill="#31525B" stroke="#F2EAD6" stroke-width="2" stroke-linecap="round" stroke-linejoin="round"/>
</svg>
