<svg width="48" height="48" viewBox="0 0 48 48" fill="none" xmlns="http://www.w3.org/2000/svg">
<path d="M45.4261 43.3969C44.5579 44.2583 43.5728 45.2511 43.1675 45.7199C42.0169 46.9303 40.6778 47.5 38.879 47.5C38.6898 47.5 38.5084 47.4998 38.3418 47.4888L38.3404 47.4888C34.7597 47.2627 31.4116 45.8798 28.8578 44.6745C21.9092 41.3548 15.8071 36.6419 10.7344 30.6664C6.53767 25.6744 3.74548 21.076 1.89832 16.1505L1.89778 16.1491C0.761567 13.147 0.362934 10.8521 0.540452 8.71286C0.654222 7.4013 1.15945 6.32606 2.10356 5.39435L6.32347 1.22986C6.87084 0.724552 7.39758 0.5 7.86163 0.5C8.4442 0.5 8.95507 0.852125 9.31967 1.21193L9.33825 1.23027L9.35684 1.24862L9.36909 1.26031C10.1153 1.94843 10.8268 2.66249 11.5817 3.43196L11.5818 3.43205C11.7755 3.62939 11.9721 3.82648 12.1686 4.02345L12.1726 4.02741C12.3682 4.22352 12.5638 4.4196 12.7592 4.61846L12.7592 4.6185L12.7647 4.62391L16.1477 7.96251C16.7571 8.56396 16.9841 9.06712 16.9841 9.50217C16.9841 9.93722 16.7571 10.4404 16.1477 11.0418C16.0229 11.165 15.9019 11.2858 15.7825 11.405C15.5497 11.6374 15.3234 11.8634 15.0883 12.0874L15.0778 12.0977C14.894 12.2834 14.77 12.4091 14.6852 12.4951C14.5187 12.6638 14.503 12.6797 14.4818 12.6969C14.4727 12.7042 14.4631 12.7116 14.451 12.7208C14.3887 12.7685 14.2605 12.8666 13.8005 13.2736C13.7972 13.2765 13.7939 13.2795 13.7907 13.2826L13.7893 13.2837L13.7733 13.2969C13.7579 13.31 13.7239 13.3389 13.6878 13.3841C13.1008 13.9752 12.8364 14.5869 12.7678 15.172C12.6996 15.7534 12.8303 16.2657 12.9493 16.6376L12.9492 16.6377L12.9518 16.6453L12.9704 16.7003L12.989 16.7553C12.9927 16.7664 12.9969 16.7774 13.0014 16.7883C13.9043 18.9468 15.1718 20.9679 17.0745 23.352C17.0849 23.365 17.0959 23.3775 17.1075 23.3894C20.5522 27.5735 24.1928 30.8462 28.2166 33.3575C28.7461 33.6889 29.2855 33.955 29.7758 34.1969L29.7848 34.2014C30.2363 34.4242 30.6356 34.6217 30.9717 34.8275C30.9847 34.8355 30.998 34.8428 31.0117 34.8496L31.012 34.8498C31.0136 34.8507 31.0207 34.8547 31.0448 34.8695L31.0489 34.8721C31.0711 34.8858 31.1137 34.9122 31.1604 34.9352C31.6413 35.1725 32.1131 35.2925 32.6084 35.2925C33.8425 35.2925 34.6112 34.5336 34.8381 34.3096L34.8432 34.3046L37.2722 31.9075C37.6703 31.5146 38.2166 31.1344 38.7922 31.1344C39.3549 31.1344 39.863 31.4915 40.2094 31.8664C40.2146 31.8721 40.22 31.8776 40.2255 31.883L40.2379 31.8953L40.2503 31.9075L47.0783 38.6458L47.08 38.6475C47.5254 39.0828 47.5738 39.8069 47.4236 40.5757C47.3523 40.9409 47.2436 41.2746 47.1516 41.5186C47.1058 41.6399 47.0649 41.7373 47.0359 41.8033C47.0327 41.8106 47.0297 41.8175 47.0268 41.824L46.9567 41.8922C46.8692 41.9774 46.7435 42.1001 46.5903 42.2501C46.2838 42.5501 45.8671 42.9594 45.4261 43.3969ZM13.7947 13.2793L13.7946 13.2794L13.7947 13.2793Z" fill="#31525B" stroke="#F2EAD6" stroke-linecap="round" stroke-linejoin="round"/>
</svg>
