<svg width="70" height="69" viewBox="0 0 70 69" fill="none" xmlns="http://www.w3.org/2000/svg">
<g clip-path="url(#clip0_23_1151)">
<path d="M12.3958 5.50105e-06H57.6042C59.2324 -0.00152916 60.845 0.318051 62.3497 0.940456C63.8543 1.56286 65.2214 2.47587 66.3728 3.62724C67.5241 4.7786 68.4371 6.14572 69.0596 7.65034C69.682 9.15497 70.0015 10.7676 70 12.3958V55.8542C70.0015 57.4824 69.682 59.095 69.0596 60.5997C68.4371 62.1043 67.5241 63.4714 66.3728 64.6228C65.2214 65.7741 63.8543 66.6871 62.3497 67.3096C60.845 67.932 59.2324 68.2515 57.6042 68.25H12.3958C10.7676 68.2515 9.15497 67.932 7.65034 67.3096C6.14572 66.6871 4.7786 65.7741 3.62724 64.6228C2.47587 63.4714 1.56286 62.1043 0.940456 60.5997C0.318051 59.095 -0.00152916 57.4824 5.50105e-06 55.8542V12.3958C-0.00152916 10.7676 0.318051 9.15497 0.940456 7.65034C1.56286 6.14572 2.47587 4.7786 3.62724 3.62724C4.7786 2.47587 6.14572 1.56286 7.65034 0.940456C9.15497 0.318051 10.7676 -0.00152916 12.3958 5.50105e-06V5.50105e-06Z" fill="#31525B"/>
<path d="M15.75 47.8625V17.85C15.75 17.6459 15.8375 17.5292 16.0417 17.5292C16.5375 17.5292 17.0042 17.5292 17.675 17.5C18.3458 17.4709 19.1042 17.4709 19.8917 17.4417C20.6792 17.4125 21.525 17.4125 22.4292 17.3834C23.3333 17.3542 24.2083 17.3542 25.0833 17.3542C27.475 17.3542 29.4583 17.6459 31.0917 18.2584C32.5558 18.7556 33.8909 19.5726 35 20.65C35.9398 21.5929 36.666 22.7269 37.1292 23.975C37.5707 25.1905 37.7977 26.4735 37.8 27.7667C37.8 30.275 37.2167 32.3459 36.05 33.9792C34.8779 35.6103 33.2415 36.8503 31.3542 37.5375C29.3708 38.2667 27.1833 38.5292 24.7917 38.5292C24.0917 38.5292 23.625 38.5292 23.3333 38.5C23.0417 38.4709 22.6333 38.4709 22.0792 38.4709V47.8334C22.0857 47.8813 22.0825 47.9302 22.0698 47.9769C22.0571 48.0236 22.0351 48.0673 22.0052 48.1054C21.9752 48.1435 21.938 48.1752 21.8956 48.1986C21.8532 48.222 21.8065 48.2367 21.7583 48.2417H16.1C15.8667 48.2417 15.75 48.125 15.75 47.8625ZM22.1083 23.1584V32.9584C22.5167 32.9875 22.8958 33.0167 23.2458 33.0167H24.7917C25.9303 33.0181 27.0621 32.8409 28.1458 32.4917C29.0756 32.2183 29.9063 31.6813 30.5375 30.9459C31.15 30.2167 31.4417 29.225 31.4417 27.9417C31.4691 27.0303 31.2364 26.1299 30.7708 25.3459C30.2845 24.5886 29.5693 24.0062 28.7292 23.6834C27.6342 23.2545 26.4626 23.0559 25.2875 23.1C24.5292 23.1 23.8583 23.1 23.3042 23.1292C22.9055 23.1031 22.5053 23.1129 22.1083 23.1584V23.1584Z" fill="#FAE6B1"/>
<path d="M56 31.1792C55.1194 30.7154 54.1763 30.3814 53.2 30.1875C52.1278 29.9447 51.0327 29.8176 49.9333 29.8084C49.3431 29.788 48.7531 29.8568 48.1833 30.0125C47.82 30.0881 47.4978 30.296 47.2792 30.5959C47.1318 30.8325 47.0512 31.1046 47.0458 31.3834C47.0594 31.6608 47.1616 31.9266 47.3375 32.1417C47.614 32.4659 47.9507 32.7334 48.3292 32.9292C49 33.2792 49.7 33.6 50.4 33.8917C51.9758 34.4222 53.4835 35.1368 54.8917 36.0209C55.8495 36.6231 56.6416 37.4553 57.1958 38.4417C57.6645 39.3722 57.895 40.4044 57.8667 41.4459C57.8903 42.8244 57.4936 44.1775 56.7292 45.325C55.9156 46.4893 54.7805 47.3914 53.4625 47.9209C52.0333 48.5334 50.2833 48.8542 48.1833 48.8542C46.8518 48.8596 45.5231 48.7326 44.2167 48.475C43.188 48.2973 42.1875 47.9834 41.2417 47.5417C41.14 47.4907 41.0554 47.411 40.9984 47.3126C40.9414 47.2141 40.9145 47.1011 40.9208 46.9875V41.9125C40.9183 41.8627 40.9276 41.8129 40.9478 41.7673C40.9681 41.7217 40.9988 41.6816 41.0375 41.65C41.0786 41.6261 41.1263 41.616 41.1736 41.6212C41.2208 41.6265 41.2652 41.6468 41.3 41.6792C42.4235 42.3415 43.6439 42.8238 44.9167 43.1084C46.0405 43.4008 47.1971 43.5478 48.3583 43.5459C49.4667 43.5459 50.2542 43.4 50.7792 43.1375C51.0133 43.0294 51.2118 42.8567 51.3513 42.6397C51.4908 42.4227 51.5655 42.1705 51.5667 41.9125C51.5667 41.5042 51.3333 41.125 50.8667 40.7459C50.4 40.3667 49.4375 39.9292 48.0083 39.375C46.5422 38.8584 45.1499 38.1524 43.8667 37.275C42.9527 36.6236 42.1955 35.7767 41.65 34.7959C41.1845 33.8747 40.9541 32.8527 40.9792 31.8209C40.9835 30.5763 41.3263 29.3563 41.9708 28.2917C42.7118 27.1208 43.7753 26.189 45.0333 25.6084C46.4042 24.9084 48.125 24.5875 50.1958 24.5875C51.4061 24.5879 52.6148 24.6756 53.8125 24.85C54.6736 24.9665 55.5165 25.192 56.3208 25.5209C56.449 25.5663 56.5539 25.6607 56.6125 25.7834C56.6461 25.8972 56.6657 26.0148 56.6708 26.1334V30.8875C56.6713 30.9442 56.6583 31.0002 56.633 31.0509C56.6076 31.1016 56.5706 31.1456 56.525 31.1792C56.3553 31.2402 56.1697 31.2402 56 31.1792Z" fill="#FAE6B1"/>
</g>
<defs>
<clipPath id="clip0_23_1151">
<rect width="70" height="68.25" fill="white"/>
</clipPath>
</defs>
</svg>
