<svg width="70" height="70" viewBox="0 0 70 70" fill="none" xmlns="http://www.w3.org/2000/svg">
<path d="M36.4904 3.85339H36.4691C19.5143 3.85339 5.76965 17.598 5.76965 34.5529V34.5742C5.76965 51.529 19.5143 65.2736 36.4691 65.2736H36.4904C53.4453 65.2736 67.1899 51.529 67.1899 34.5742V34.5529C67.1899 17.598 53.4453 3.85339 36.4904 3.85339Z" fill="#1D3136"/>
<path d="M36.4691 3.85339C28.334 3.87587 20.5386 7.11748 14.7861 12.8699C9.03374 18.6223 5.79213 26.4178 5.76965 34.5529H36.4691V3.85339Z" fill="#2C4951"/>
<path d="M36.4688 3.85339C44.6038 3.87587 52.3993 7.11748 58.1517 12.8699C63.9041 18.6223 67.1458 26.4178 67.1682 34.5529H36.4688V3.85339Z" fill="#45636B"/>
<path d="M31.6788 17.2871H2.87409C1.28677 17.2871 0 18.5739 0 20.1612V48.9659C0 50.5532 1.28677 51.84 2.87409 51.84H31.6788C33.2661 51.84 34.5529 50.5532 34.5529 48.9659V20.1612C34.5529 18.5739 33.2661 17.2871 31.6788 17.2871Z" fill="#31525B"/>
<path d="M17.5212 25.2068C19.3538 25.0815 21.1716 25.6095 22.6519 26.697C23.2456 27.2299 23.7125 27.8888 24.0182 28.6256C24.324 29.3624 24.4609 30.1583 24.419 30.9549C24.4552 32.096 24.1558 33.2227 23.5579 34.1953C22.96 35.1678 22.0898 35.9436 21.0552 36.4263C19.8732 36.9654 18.586 37.2345 17.287 37.2141H13.7529V43.8138H10.1124V25.2068H17.5212ZM13.7316 34.4251H16.8825C17.8731 34.5046 18.8583 34.2166 19.6501 33.6161C19.9735 33.3041 20.2248 32.9253 20.3866 32.5061C20.5484 32.0869 20.6168 31.6375 20.5869 31.1891C20.5869 29.0602 19.3947 28.1021 16.9889 28.1021H13.7529L13.7316 34.4251Z" fill="#FAE6B1"/>
</svg>
