<svg width="70" height="69" viewBox="0 0 70 69" fill="none" xmlns="http://www.w3.org/2000/svg">
<g clip-path="url(#clip0_23_1181)">
<path d="M12.3958 5.50105e-06H57.6042C59.2324 -0.00152916 60.845 0.318051 62.3497 0.940456C63.8543 1.56286 65.2214 2.47587 66.3728 3.62724C67.5241 4.7786 68.4371 6.14572 69.0596 7.65034C69.682 9.15497 70.0015 10.7676 70 12.3958V55.8542C70.0015 57.4824 69.682 59.095 69.0596 60.5997C68.4371 62.1043 67.5241 63.4714 66.3728 64.6228C65.2214 65.7741 63.8543 66.6871 62.3497 67.3096C60.845 67.932 59.2324 68.2515 57.6042 68.25H12.3958C10.7676 68.2515 9.15497 67.932 7.65034 67.3096C6.14572 66.6871 4.7786 65.7741 3.62724 64.6228C2.47587 63.4714 1.56286 62.1043 0.940456 60.5997C0.318051 59.095 -0.00152916 57.4824 5.50105e-06 55.8542V12.3958C-0.00152916 10.7676 0.318051 9.15497 0.940456 7.65034C1.56286 6.14572 2.47587 4.7786 3.62724 3.62724C4.7786 2.47587 6.14572 1.56286 7.65034 0.940456C9.15497 0.318051 10.7676 -0.00152916 12.3958 5.50105e-06V5.50105e-06Z" fill="#31525B"/>
<path d="M16.625 47.8625V17.85C16.625 17.6459 16.7125 17.5292 16.9167 17.5292C17.4125 17.5292 17.8792 17.5292 18.55 17.5C19.2208 17.4709 19.9792 17.4709 20.7667 17.4417C21.5542 17.4125 22.4 17.4125 23.3042 17.3834C24.2083 17.3542 25.0833 17.3542 25.9583 17.3542C28.35 17.3542 30.3333 17.6459 31.9667 18.2584C33.4308 18.7556 34.7659 19.5726 35.875 20.65C36.8148 21.5929 37.541 22.7269 38.0042 23.975C38.4457 25.1905 38.6727 26.4735 38.675 27.7667C38.675 30.275 38.0917 32.3459 36.925 33.9792C35.7529 35.6103 34.1165 36.8503 32.2292 37.5375C30.2458 38.2667 28.0583 38.5292 25.6667 38.5292C24.9667 38.5292 24.5 38.5292 24.2083 38.5C23.9167 38.4709 23.5083 38.4709 22.9542 38.4709V47.8334C22.9607 47.8813 22.9575 47.9302 22.9448 47.9769C22.9321 48.0236 22.9101 48.0673 22.8802 48.1054C22.8502 48.1435 22.813 48.1752 22.7706 48.1986C22.7282 48.222 22.6815 48.2367 22.6333 48.2417H16.975C16.7417 48.2417 16.625 48.125 16.625 47.8625ZM22.9833 23.1584V32.9584C23.3917 32.9875 23.7708 33.0167 24.1208 33.0167H25.6667C26.8053 33.0181 27.9371 32.8409 29.0208 32.4917C29.9506 32.2183 30.7813 31.6813 31.4125 30.9459C32.025 30.2167 32.3167 29.225 32.3167 27.9417C32.3441 27.0303 32.1114 26.1299 31.6458 25.3459C31.1595 24.5886 30.4443 24.0062 29.6042 23.6834C28.5092 23.2545 27.3376 23.0559 26.1625 23.1C25.4042 23.1 24.7333 23.1 24.1792 23.1292C23.7805 23.1031 23.3803 23.1129 22.9833 23.1584V23.1584Z" fill="#FAE6B1"/>
<path d="M42.7584 24.85H47.8626C48.0008 24.8533 48.1344 24.9003 48.2444 24.9841C48.3544 25.0679 48.4351 25.1843 48.475 25.3167C48.5641 25.5513 48.6229 25.7964 48.6501 26.0458C48.7084 26.3375 48.7667 26.6583 48.7959 26.95C48.8251 27.2417 48.8542 27.6208 48.8542 28C49.73 26.9776 50.7882 26.1271 51.9751 25.4917C53.3308 24.7386 54.8575 24.3468 56.4084 24.3542C56.4564 24.3477 56.5052 24.3509 56.5519 24.3636C56.5987 24.3763 56.6424 24.3982 56.6805 24.4282C56.7185 24.4581 56.7502 24.4954 56.7736 24.5378C56.797 24.5802 56.8117 24.6268 56.8167 24.675V30.4792C56.8167 30.7125 56.6709 30.8 56.3501 30.8C55.292 30.7654 54.2338 30.8634 53.2 31.0917C52.3575 31.2656 51.5361 31.5296 50.7501 31.8792C50.1858 32.1336 49.6795 32.5009 49.2625 32.9583V47.8333C49.2625 48.125 49.1459 48.2417 48.8834 48.2417H43.1375C43.0837 48.2507 43.0287 48.2488 42.9757 48.2359C42.9226 48.223 42.8728 48.1995 42.8291 48.1668C42.7855 48.134 42.749 48.0928 42.7218 48.0455C42.6945 47.9982 42.6772 47.9459 42.6709 47.8917V31.6167C42.6709 30.9167 42.6709 30.1875 42.6417 29.4292C42.6125 28.6708 42.6126 27.9125 42.5834 27.1542C42.5834 26.4833 42.5251 25.8417 42.4667 25.1708C42.459 25.1364 42.4581 25.1007 42.4642 25.0659C42.4703 25.0311 42.4832 24.9978 42.5022 24.968C42.5211 24.9382 42.5458 24.9124 42.5748 24.8922C42.6037 24.8719 42.6364 24.8576 42.6709 24.85C42.6709 24.8208 42.7292 24.8208 42.7584 24.85V24.85Z" fill="#FAE6B1"/>
</g>
<defs>
<clipPath id="clip0_23_1181">
<rect width="70" height="68.25" fill="white"/>
</clipPath>
</defs>
</svg>
