<svg width="68" height="63" viewBox="0 0 68 63" fill="none" xmlns="http://www.w3.org/2000/svg">
<path d="M47.5328 23.7576H64.2616C64.6375 23.7576 65.0097 23.8317 65.357 23.9755C65.7043 24.1194 66.0198 24.3302 66.2856 24.596C66.5514 24.8618 66.7622 25.1773 66.9061 25.5246C67.0499 25.8719 67.124 26.2441 67.124 26.62V42.0131C67.124 44.8247 66.007 47.5212 64.0189 49.5093C62.0308 51.4974 59.3343 52.6143 56.5227 52.6143C53.711 52.6143 51.0146 51.4974 49.0264 49.5093C47.0383 47.5212 45.9214 44.8247 45.9214 42.0131V25.263C45.9209 25.0561 45.963 24.8513 46.0452 24.6614C46.1274 24.4714 46.2479 24.3005 46.3991 24.1593C46.5503 24.018 46.729 23.9094 46.9241 23.8403C47.1192 23.7712 47.3264 23.7431 47.5328 23.7576V23.7576Z" fill="#31525B"/>
<path d="M56.565 19.9412C60.2536 19.9412 63.2438 16.951 63.2438 13.2624C63.2438 9.57382 60.2536 6.58362 56.565 6.58362C52.8764 6.58362 49.8862 9.57382 49.8862 13.2624C49.8862 16.951 52.8764 19.9412 56.565 19.9412Z" fill="#31525B"/>
<path d="M36.4859 19.9412C41.7671 19.9412 46.0483 15.66 46.0483 10.3788C46.0483 5.09768 41.7671 0.816467 36.4859 0.816467C31.2048 0.816467 26.9236 5.09768 26.9236 10.3788C26.9236 15.66 31.2048 19.9412 36.4859 19.9412Z" fill="#45636B"/>
<path d="M50.819 23.7576H22.1531C21.7716 23.7632 21.395 23.8438 21.0447 23.9949C20.6944 24.146 20.3773 24.3646 20.1115 24.6383C19.8457 24.912 19.6364 25.2353 19.4956 25.5899C19.3547 25.9445 19.2851 26.3233 19.2908 26.7048V44.3453C19.2097 46.6528 19.5942 48.9531 20.4213 51.1088C21.2484 53.2645 22.5012 55.2315 24.1049 56.8926C25.7087 58.5537 27.6305 59.8748 29.7559 60.777C31.8812 61.6793 34.1665 62.1443 36.4754 62.1443C38.7844 62.1443 41.0697 61.6793 43.195 60.777C45.3203 59.8748 47.2422 58.5537 48.8459 56.8926C50.4497 55.2315 51.7025 53.2645 52.5296 51.1088C53.3567 48.9531 53.7412 46.6528 53.6601 44.3453V26.7048C53.6715 25.938 53.3792 25.1978 52.8469 24.6457C52.3147 24.0936 51.5857 23.7743 50.819 23.7576V23.7576Z" fill="#45636B"/>
<path d="M31.7154 14.2165H3.02836C1.44753 14.2165 0.166016 15.498 0.166016 17.0788V45.7659C0.166016 47.3468 1.44753 48.6283 3.02836 48.6283H31.7154C33.2963 48.6283 34.5778 47.3468 34.5778 45.7659V17.0788C34.5778 15.498 33.2963 14.2165 31.7154 14.2165Z" fill="#31525B"/>
<path d="M24.9307 25.0511H19.1848V40.6562H15.4956V25.0511H9.83447V22.1039H24.9307V25.0511Z" fill="#FAE6B1"/>
</svg>
