<svg width="48" height="48" viewBox="0 0 48 48" fill="none" xmlns="http://www.w3.org/2000/svg">
<g clip-path="url(#clip0_193_439)">
<g filter="url(#filter0_d_193_439)">
<path fill-rule="evenodd" clip-rule="evenodd" d="M4 14C4 8.47715 8.47715 4 14 4H34C39.5228 4 44 8.47715 44 14V34C44 39.5228 39.5228 44 34 44H14C8.47715 44 4 39.5228 4 34V14ZM14 8C10.6863 8 8 10.6863 8 14V34C8 37.3137 10.6863 40 14 40H34C37.3137 40 40 37.3137 40 34V14C40 10.6863 37.3137 8 34 8H14ZM22.5858 16.5858C23.3668 15.8047 24.6332 15.8047 25.4142 16.5858L31.4142 22.5858C32.1953 23.3668 32.1953 24.6332 31.4142 25.4142C30.6332 26.1953 29.3668 26.1953 28.5858 25.4142L26 22.8284V30C26 31.1046 25.1046 32 24 32C22.8954 32 22 31.1046 22 30V22.8284L19.4142 25.4142C18.6332 26.1953 17.3668 26.1953 16.5858 25.4142C15.8047 24.6332 15.8047 23.3668 16.5858 22.5858L22.5858 16.5858Z" fill="#31525B"/>
</g>
</g>
<defs>
<filter id="filter0_d_193_439" x="0" y="4" width="48" height="48" filterUnits="userSpaceOnUse" color-interpolation-filters="sRGB">
<feFlood flood-opacity="0" result="BackgroundImageFix"/>
<feColorMatrix in="SourceAlpha" type="matrix" values="0 0 0 0 0 0 0 0 0 0 0 0 0 0 0 0 0 0 127 0" result="hardAlpha"/>
<feOffset dy="4"/>
<feGaussianBlur stdDeviation="2"/>
<feComposite in2="hardAlpha" operator="out"/>
<feColorMatrix type="matrix" values="0 0 0 0 0 0 0 0 0 0 0 0 0 0 0 0 0 0 0.25 0"/>
<feBlend mode="normal" in2="BackgroundImageFix" result="effect1_dropShadow_193_439"/>
<feBlend mode="normal" in="SourceGraphic" in2="effect1_dropShadow_193_439" result="shape"/>
</filter>
<clipPath id="clip0_193_439">
<rect width="48" height="48" fill="white"/>
</clipPath>
</defs>
</svg>
