<svg width="70" height="69" viewBox="0 0 70 69" fill="none" xmlns="http://www.w3.org/2000/svg">
<rect width="70" height="68.25" rx="12" fill="#31525B"/>
<path d="M59.3151 13.4935L48.5745 8.32204C47.3314 7.72344 45.8455 7.97594 44.8697 8.95164L9.70861 41.0104C8.76286 41.8728 8.76395 43.3617 9.71095 44.2226L12.583 46.8335C13.3573 47.5374 14.5232 47.5891 15.3568 46.9569L57.699 14.8351C59.1195 13.7575 61.1598 14.7706 61.1598 16.5537V16.429C61.1598 15.1774 60.4428 14.0365 59.3151 13.4935Z" fill="#DFCB96"/>
<path d="M59.3151 54.3661L48.5745 59.5376C47.3314 60.1361 45.8455 59.8836 44.8697 58.908L9.70861 26.8492C8.76286 25.9869 8.76395 24.4979 9.71095 23.637L12.583 21.026C13.3573 20.3222 14.5232 20.2704 15.3568 20.9028L57.699 53.0244C59.1195 54.102 61.1598 53.089 61.1598 51.3058V51.4307C61.1598 52.6821 60.4428 53.8231 59.3151 54.3661Z" fill="#F4E0AB"/>
<path d="M48.5748 59.5383C47.3313 60.1363 45.8454 59.8836 44.8696 58.9079C46.0718 60.1101 48.1276 59.2585 48.1276 57.5582V10.3011C48.1276 8.60085 46.0718 7.74934 44.8696 8.95162C45.8454 7.97584 47.3313 7.72298 48.5748 8.32105L59.3136 13.4854C60.4421 14.0281 61.1597 15.1694 61.1597 16.4215V51.4381C61.1597 52.6902 60.4421 53.8315 59.3136 54.3741L48.5748 59.5383Z" fill="#FAE6B1"/>
</svg>
