<svg width="70" height="70" viewBox="0 0 70 70" fill="none" xmlns="http://www.w3.org/2000/svg">
<path d="M18.7134 66.0357H65.3801C65.7628 66.0386 66.1424 65.9653 66.4965 65.8202C66.8507 65.675 67.1725 65.4609 67.4432 65.1902C67.7138 64.9195 67.928 64.5978 68.0731 64.2436C68.2183 63.8894 68.2915 63.5099 68.2887 63.1271V50.5017H15.8264V63.1271C15.8235 63.5081 15.8961 63.8858 16.0399 64.2386C16.1837 64.5913 16.3959 64.9122 16.6643 65.1825C16.9327 65.4529 17.2519 65.6675 17.6036 65.8139C17.9553 65.9604 18.3325 66.0357 18.7134 66.0357Z" fill="#1D3136"/>
<path d="M65.3801 3.89966H18.7134C18.3325 3.89965 17.9553 3.97503 17.6036 4.12146C17.2519 4.2679 16.9327 4.48248 16.6643 4.75286C16.3959 5.02323 16.1837 5.34404 16.0399 5.69681C15.8961 6.04957 15.8235 6.42731 15.8264 6.80825V19.4337H68.224V6.80825C68.2298 6.04624 67.9341 5.31285 67.4013 4.768C66.8686 4.22314 66.142 3.91101 65.3801 3.89966Z" fill="#45636B"/>
<path d="M68.2457 34.9677H15.8049V50.5017H68.2457V34.9677Z" fill="#274148"/>
<path d="M68.2457 19.4337H15.8049V34.9677H68.2457V19.4337Z" fill="#2C4951"/>
<path d="M32.3082 17.4946H3.15773C1.55137 17.4946 0.249146 18.7968 0.249146 20.4032V49.5537C0.249146 51.16 1.55137 52.4622 3.15773 52.4622H32.3082C33.9146 52.4622 35.2168 51.16 35.2168 49.5537V20.4032C35.2168 18.7968 33.9146 17.4946 32.3082 17.4946Z" fill="#31525B"/>
<path d="M12.2067 39.8368C12.2699 40.2216 12.3059 40.6104 12.3145 41.0003V41.0003C12.3411 40.6169 12.3915 40.2355 12.4653 39.8584C12.5127 39.4735 12.5847 39.0921 12.6807 38.7165L15.8263 25.5093H19.7906L22.9578 38.4364C23.135 39.2468 23.2645 40.0669 23.3456 40.8925V40.8925C23.4025 40.0964 23.5104 39.3048 23.6687 38.5226L26.2111 25.4232H29.8091L25.3708 44.3397H21.2341L18.1963 31.8867C18.1963 31.5204 18.0024 31.068 17.8947 30.4863C17.7869 29.9045 17.7223 29.4736 17.7008 29.2151C17.7008 29.5167 17.7008 29.9692 17.5068 30.594C17.3129 31.2188 17.3129 31.6497 17.2698 31.9298L14.4259 44.4259H10.1169L5.6355 25.5093H9.3628L12.1206 38.738C12.1731 39.102 12.2019 39.4691 12.2067 39.8368V39.8368Z" fill="#FAE6B1"/>
</svg>
